<?xml version="1.0" encoding="utf-8"?>
<!-- Generator: Adobe Illustrator 16.0.0, SVG Export Plug-In . SVG Version: 6.00 Build 0)  -->
<!DOCTYPE svg PUBLIC "-//W3C//DTD SVG 1.1//EN" "http://www.w3.org/Graphics/SVG/1.1/DTD/svg11.dtd">
<svg version="1.1" id="Layer_1" xmlns="http://www.w3.org/2000/svg" xmlns:xlink="http://www.w3.org/1999/xlink" x="0px" y="0px"
	 width="320px" height="320px" viewBox="0 0 320 320" enable-background="new 0 0 320 320" xml:space="preserve">
<g>
	<path fill-rule="evenodd" clip-rule="evenodd" fill="#FFFFFF" d="M73.585,134.745c0-20.304,16.542-36.84,36.841-36.84
		c20.36,0,36.896,16.536,36.896,36.84v26.538H73.585V134.745z M170.464,161.283v-26.538c0-33.083-26.955-59.977-60.038-59.977
		s-60.028,26.895-60.028,59.977v26.538H23.242v90.852h174.429v-90.852H170.464z"/>
	<polygon fill="#FFFFFF" points="101.975,320 101.975,275.633 121.459,275.633 121.459,300.158 277.288,300.158 277.288,19.836 
		121.459,19.836 121.459,52.456 101.975,52.456 101.975,0 296.758,0 296.758,320 	"/>
</g>
</svg>
