<?xml version="1.0" encoding="utf-8"?>
<!-- Generator: Adobe Illustrator 16.0.0, SVG Export Plug-In . SVG Version: 6.00 Build 0)  -->
<!DOCTYPE svg PUBLIC "-//W3C//DTD SVG 1.1//EN" "http://www.w3.org/Graphics/SVG/1.1/DTD/svg11.dtd">
<svg version="1.1" id="Layer_1" xmlns="http://www.w3.org/2000/svg" xmlns:xlink="http://www.w3.org/1999/xlink" x="0px" y="0px"
	 width="320px" height="320px" viewBox="0 0 320 320" enable-background="new 0 0 320 320" xml:space="preserve">
<g>
	<path fill-rule="evenodd" clip-rule="evenodd" fill="#FFFFFF" d="M125.846,156.23c0-20.416,16.591-37.006,36.957-37.006
		c20.416,0,37.007,16.59,37.007,37.006v24.393h-73.964V156.23z M223.021,180.623V156.23c0-33.182-27.036-60.213-60.219-60.213
		c-33.177,0-60.208,27.031-60.208,60.213v24.393H75.356v96.6H250.31v-96.6H223.021z"/>
	<polygon fill="#FFFFFF" points="320.963,241.715 272.683,241.715 272.683,221.818 301.062,221.818 301.062,62.674 19.896,62.674 
		19.896,221.818 52.66,221.818 52.66,241.715 0,241.715 0,42.778 320.963,42.778 	"/>
</g>
</svg>
