<?xml version="1.0" encoding="utf-8"?>
<!-- Generator: Adobe Illustrator 16.0.0, SVG Export Plug-In . SVG Version: 6.00 Build 0)  -->
<!DOCTYPE svg PUBLIC "-//W3C//DTD SVG 1.1//EN" "http://www.w3.org/Graphics/SVG/1.1/DTD/svg11.dtd">
<svg version="1.1" id="Layer_1" xmlns="http://www.w3.org/2000/svg" xmlns:xlink="http://www.w3.org/1999/xlink" x="0px" y="0px"
	 width="320px" height="320px" viewBox="0 0 320 320" enable-background="new 0 0 320 320" xml:space="preserve">
<g>
	<path fill-rule="evenodd" clip-rule="evenodd" fill="#FFFFFF" d="M24.53,122.674l97.3-97.305L293.834,197.32l-97.356,97.309
		L24.53,122.674z M121.83,1.02L0.222,122.674L196.478,318.98l121.66-121.66L121.83,1.02z"/>
	<path fill="#FFFFFF" d="M187.81,9.787l-2.781,3.472l45.141,51.005l7.034-30.075c38.844,16.375,66.197,54.847,66.197,99.603h16.378
		c0-68.497-55.645-124.233-124.096-124.425l-0.28-0.092l-0.046,0.092l0,0L187.81,9.787z"/>
	<path fill="#FFFFFF" d="M140.977,315.453l2.813-3.472l-45.137-50.99l-7.035,30.074c-38.848-16.379-66.198-54.854-66.198-99.608
		H9.039c0,68.498,55.648,124.234,124.055,124.417l0.279,0.092l0.104-0.092L140.977,315.453z"/>
</g>
</svg>
